<svg xmlns="http://www.w3.org/2000/svg" style="isolation:isolate" viewBox="0 0 500 500" width="500pt" height="500pt"><defs><clipPath id="a"><path d="M0 0h500v500H0z"/></clipPath></defs><g clip-path="url(#a)"><path fill="#FFF" d="M0 0h500v500H0z"/><clipPath id="b"><path fill="#FFF" d="M0 0h500v500H0z"/></clipPath><g clip-path="url(#b)"><path fill="#F9FAFB" d="m-456.829 430.572 89.609-89.609 652.304 652.304-89.61 89.608z"/><path fill="#FFC500" d="m-367.207 340.968 89.61-89.61 652.303 652.305-89.609 89.608z"/><path fill="#F9FAFB" d="m-277.586 251.364 89.609-89.609L464.326 814.06l-89.608 89.609z"/><path fill="#FFC500" d="m-187.963 161.762 89.61-89.61L553.95 724.458l-89.609 89.608z"/><path fill="#F9FAFB" d="m-98.34 72.16 89.608-89.61 652.304 652.304-89.609 89.609z"/><path fill="#FFC500" d="m-8.719-17.444 89.61-89.61 652.303 652.305-89.609 89.608z"/><path fill="#F9FAFB" d="m80.903-107.048 89.608-89.608 652.304 652.303-89.609 89.609z"/><path fill="#FFC500" d="m170.525-196.65 89.61-89.608 652.303 652.304-89.609 89.608z"/></g><path d="M76.406 76.412a41.228 41.228 0 0 1 29.159-12.085h41.238a41.23 41.23 0 0 1 29.159 12.085 41.272 41.272 0 0 1 12.079 29.176v41.26a41.27 41.27 0 0 1-12.079 29.175 41.22 41.22 0 0 1-29.159 12.085h-41.238a41.22 41.22 0 0 1-29.159-12.085 41.27 41.27 0 0 1-12.079-29.175v-41.26a41.272 41.272 0 0 1 12.079-29.176Zm70.397 29.176h-41.238v41.26h41.238v-41.26Zm103.093-41.261c11.389 0 20.62 9.237 20.62 20.631v20.63c0 11.394-9.231 20.63-20.62 20.63-11.387 0-20.618-9.236-20.618-20.63v-20.63c0-11.394 9.231-20.631 20.618-20.631Zm73.936 12.085a41.23 41.23 0 0 1 29.159-12.085h41.237a41.226 41.226 0 0 1 29.159 12.085 41.272 41.272 0 0 1 12.079 29.176v41.26a41.27 41.27 0 0 1-12.079 29.175 41.217 41.217 0 0 1-29.159 12.085h-41.237a41.22 41.22 0 0 1-29.159-12.085 41.27 41.27 0 0 1-12.079-29.175v-41.26a41.272 41.272 0 0 1 12.079-29.176Zm70.396 29.176h-41.237v41.26h41.237v-41.26Zm-144.332 61.89c11.389 0 20.62 9.237 20.62 20.63v41.26h62.063c11.387 0 20.618 9.237 20.618 20.631s-9.231 20.63-20.618 20.63h-82.683c-11.387 0-20.618-9.236-20.618-20.63v-61.891c0-11.393 9.231-20.63 20.618-20.63ZM64.327 249.999c0-11.394 9.232-20.631 20.619-20.631h82.475c11.387 0 20.62 9.237 20.62 20.631s-9.233 20.63-20.62 20.63H84.946c-11.387 0-20.619-9.236-20.619-20.63Zm329.901 0c0-11.394 9.233-20.631 20.62-20.631h.206c11.388 0 20.619 9.237 20.619 20.631s-9.231 20.63-20.619 20.63h-.206c-11.387 0-20.62-9.236-20.62-20.63ZM76.406 323.974a41.228 41.228 0 0 1 29.159-12.085h41.238a41.23 41.23 0 0 1 29.159 12.085 41.273 41.273 0 0 1 12.079 29.175v41.262a41.27 41.27 0 0 1-12.079 29.175 41.23 41.23 0 0 1-29.159 12.085h-41.238a41.228 41.228 0 0 1-29.159-12.085 41.27 41.27 0 0 1-12.079-29.175v-41.262a41.273 41.273 0 0 1 12.079-29.175Zm70.397 29.175h-41.238v41.262h41.238v-41.262Zm82.475-20.63c0-11.393 9.231-20.63 20.618-20.63h41.239a20.617 20.617 0 0 1 17.539 9.785 20.64 20.64 0 0 1 .902 20.072l-41.237 82.52a20.613 20.613 0 0 1-23.18 10.852c-9.307-2.197-15.881-10.51-15.881-20.077v-82.522Zm123.713 0c0-11.393 9.231-20.63 20.619-20.63h41.238c11.387 0 20.618 9.237 20.618 20.63 0 11.395-9.231 20.63-20.618 20.63H373.61c-11.388 0-20.619-9.235-20.619-20.63Zm-41.238 82.522c0-11.395 9.232-20.63 20.62-20.63h82.475c11.387 0 20.618 9.235 20.618 20.63 0 11.393-9.231 20.63-20.618 20.63h-82.475c-11.388 0-20.62-9.237-20.62-20.63Z" fill-rule="evenodd" fill-opacity=".6"/></g></svg>